<svg xmlns="http://www.w3.org/2000/svg" xmlns:xlink="http://www.w3.org/1999/xlink" version="1.1" x="0px" y="0px" viewBox="0 0 100 125" enable-background="new 0 0 100 100" xml:space="preserve"><path fill-rule="evenodd" clip-rule="evenodd" d="M93.716,32.346c-0.788-3.441-2.294-5.409-6.57-5.812c-21.297,0-52.993,0-74.291,0  c-4.279,0.402-5.782,2.371-6.571,5.812c-1.711,9.608-1.711,25.701,0,35.308c0.789,3.441,2.293,5.409,6.571,5.812  c21.297,0,52.995,0,74.291,0c4.276-0.403,5.782-2.371,6.57-5.812C95.427,58.057,95.429,41.944,93.716,32.346L93.716,32.346z   M74.963,66.974H25.038V33.026h49.925V66.974L74.963,66.974z M84.91,56.7c-1.11,0-2.01-0.9-2.01-2.011c0-1.11,0.9-2.01,2.01-2.01  c1.109,0,2.01,0.9,2.01,2.01C86.92,55.8,86.018,56.7,84.91,56.7L84.91,56.7z M84.91,43.3c1.109,0,2.01,0.901,2.01,2.01  c0,1.11-0.901,2.011-2.01,2.011c-1.11,0-2.01-0.901-2.01-2.011C82.9,44.201,83.8,43.3,84.91,43.3L84.91,43.3z M88.928,52.01  c-1.11,0-2.008-0.9-2.008-2.011c0-1.108,0.899-2.01,2.008-2.01c1.111,0,2.011,0.901,2.011,2.01  C90.939,51.11,90.039,52.01,88.928,52.01L88.928,52.01z M80.889,52.01c-1.11,0-2.01-0.9-2.01-2.011c0-1.108,0.9-2.01,2.01-2.01  c1.109,0,2.011,0.901,2.011,2.01C82.9,51.11,81.998,52.01,80.889,52.01L80.889,52.01z M21.043,51.997h-3.994v3.994h-3.994v-3.994  H9.061v-3.993h3.993v-3.994h3.994v3.994l4.056-0.057L21.043,51.997z"/><text x="0" y="115" fill="#000000" font-size="5px" font-weight="bold" font-family="'Helvetica Neue', Helvetica, Arial-Unicode, Arial, Sans-serif">Created by Mourad Mokrane</text><text x="0" y="120" fill="#000000" font-size="5px" font-weight="bold" font-family="'Helvetica Neue', Helvetica, Arial-Unicode, Arial, Sans-serif">from the Noun Project</text></svg>